<svg width="28" height="28" viewBox="0 0 28 28" fill="none" xmlns="http://www.w3.org/2000/svg">
<path d="M4.66663 4.66663H6.60507C7.35502 4.66663 7.73 4.66663 8.00126 4.87842C8.27252 5.09022 8.36347 5.45399 8.54536 6.18155L8.76738 7.06963C8.94562 7.7826 9.03474 8.13909 9.21387 8.41695C9.45838 8.79624 9.82397 9.08168 10.2512 9.2269C10.5642 9.33329 10.9317 9.33329 11.6666 9.33329V9.33329" stroke="white" stroke-width="2" stroke-linecap="round"/>
<path d="M21 19.8334H8.80939C8.43148 19.8334 8.24253 19.8334 8.10359 19.7922C7.66676 19.6629 7.37254 19.2547 7.388 18.7994C7.39292 18.6546 7.45267 18.4754 7.57218 18.1168V18.1168C7.70477 17.7191 7.77106 17.5202 7.86435 17.3541C8.15263 16.8407 8.65243 16.4805 9.23059 16.3693C9.41767 16.3334 9.62732 16.3334 10.0466 16.3334H16.3333" stroke="white" stroke-width="2" stroke-linecap="round" stroke-linejoin="round"/>
<path d="M17.3612 16.3334H12.7218C11.1035 16.3334 10.2943 16.3334 9.7348 15.8594C9.17531 15.3855 9.04228 14.5873 8.77623 12.991L8.74883 12.8266C8.47857 11.205 8.34344 10.3942 8.79279 9.86381C9.24213 9.33337 10.0641 9.33337 11.708 9.33337H20.0972C21.5476 9.33337 22.2728 9.33337 22.5659 9.80764C22.859 10.2819 22.5347 10.9305 21.8861 12.2278L20.9389 14.1222C20.401 15.1981 20.132 15.736 19.6487 16.0347C19.1654 16.3334 18.564 16.3334 17.3612 16.3334Z" stroke="white" stroke-width="2" stroke-linecap="round"/>
<circle cx="19.8333" cy="23.3333" r="1.16667" fill="white"/>
<circle cx="10.5" cy="23.3333" r="1.16667" fill="white"/>
</svg>
