<svg width="240" height="154" viewBox="0 0 240 154" fill="none" xmlns="http://www.w3.org/2000/svg">
<path fill-rule="evenodd" clip-rule="evenodd" d="M3.39388 54.2811C5.58055 56.6811 8.80722 57.8811 13.0739 57.8811C17.3939 57.8811 20.6739 56.6544 22.9139 54.2011C25.2072 51.7478 26.3539 48.2278 26.3539 43.6411C26.3539 40.1211 25.6605 37.0544 24.2739 34.4411C22.8872 31.8278 20.3539 28.9211 16.6739 25.7211C13.7939 23.2144 11.7939 21.0811 10.6739 19.3211C9.60722 17.5611 9.07388 15.6678 9.07388 13.6411C9.07388 10.0678 10.5405 8.28111 13.4739 8.28111C14.9139 8.28111 16.0072 8.73445 16.7539 9.64111C17.5005 10.4944 17.8739 11.8811 17.8739 13.8011V16.6811H26.1939V14.3611C26.1939 9.82778 25.1005 6.36111 22.9139 3.96111C20.7806 1.50778 17.6072 0.281113 13.3939 0.281113C9.12722 0.281113 5.87388 1.50778 3.63388 3.96111C1.39388 6.36111 0.273882 9.77445 0.273882 14.2011C0.273882 17.4544 0.993882 20.3878 2.43388 23.0011C3.87388 25.5611 6.40722 28.4411 10.0339 31.6411C12.9139 34.1478 14.8872 36.3078 15.9539 38.1211C17.0205 39.8811 17.5539 41.9344 17.5539 44.2811C17.5539 46.2544 17.1539 47.6945 16.3539 48.6011C15.6072 49.4544 14.4872 49.8811 12.9939 49.8811C9.95388 49.8811 8.43388 48.0678 8.43388 44.4411V40.6011H0.113882V43.8011C0.113882 48.3344 1.20722 51.8278 3.39388 54.2811ZM28.3708 1.08111L39.0108 33.2411V57.0811H47.8108V33.2411L58.4508 1.08111H49.8908L43.8908 21.6411H43.7308L37.7308 1.08111H28.3708ZM71.2151 1.08111H62.4151V57.0811H85.6951V49.0811H71.2151V1.08111ZM98.7151 1.08111H89.9151V57.0811H113.195V49.0811H98.7151V1.08111ZM136.448 1.08111H124.528L115.408 57.0811H123.568L125.168 46.1211H135.168V45.9611L136.768 57.0811H145.568L136.448 1.08111ZM130.208 10.8411L134.128 38.5211H126.208L130.048 10.8411H130.208ZM163.117 1.08111H149.837V57.0811H163.677C168.05 57.0811 171.357 55.9611 173.597 53.7211C175.89 51.4278 177.037 48.1211 177.037 43.8011V39.0011C177.037 32.7078 174.85 28.8144 170.477 27.3211V27.1611C172.397 26.3611 173.81 25.0544 174.717 23.2411C175.677 21.4278 176.157 19.0811 176.157 16.2011V13.9611C176.157 9.58778 175.117 6.36111 173.037 4.28111C170.957 2.14778 167.65 1.08111 163.117 1.08111ZM165.997 22.5211C165.144 23.4278 163.837 23.8811 162.077 23.8811H158.637V9.08111H162.877C164.424 9.08111 165.544 9.53445 166.237 10.4411C166.984 11.3478 167.357 12.8144 167.357 14.8411V17.9611C167.357 20.0944 166.904 21.6144 165.997 22.5211ZM167.117 47.8811C166.37 48.6811 165.224 49.0811 163.677 49.0811H158.637V31.8811H162.557C164.584 31.8811 166.024 32.3878 166.877 33.4011C167.784 34.3611 168.237 36.1211 168.237 38.6811V43.5611C168.237 45.5878 167.864 47.0278 167.117 47.8811ZM185.221 54.2811C187.461 56.6811 190.714 57.8811 194.981 57.8811C199.247 57.8811 202.501 56.6811 204.741 54.2811C206.981 51.8278 208.101 48.3344 208.101 43.8011V1.08111H199.621V44.4411C199.621 46.3611 199.221 47.7478 198.421 48.6011C197.674 49.4544 196.581 49.8811 195.141 49.8811C193.701 49.8811 192.581 49.4544 191.781 48.6011C191.034 47.7478 190.661 46.3611 190.661 44.4411V1.08111H181.861V43.8011C181.861 48.3344 182.981 51.8278 185.221 54.2811ZM216.128 54.2811C218.315 56.6811 221.542 57.8811 225.808 57.8811C230.128 57.8811 233.408 56.6544 235.648 54.2011C237.942 51.7478 239.088 48.2278 239.088 43.6411C239.088 40.1211 238.395 37.0544 237.008 34.4411C235.622 31.8278 233.088 28.9211 229.408 25.7211C226.528 23.2144 224.528 21.0811 223.408 19.3211C222.342 17.5611 221.808 15.6678 221.808 13.6411C221.808 10.0678 223.275 8.28111 226.208 8.28111C227.648 8.28111 228.742 8.73445 229.488 9.64111C230.235 10.4944 230.608 11.8811 230.608 13.8011V16.6811H238.928V14.3611C238.928 9.82778 237.835 6.36111 235.648 3.96111C233.515 1.50778 230.342 0.281113 226.128 0.281113C221.862 0.281113 218.608 1.50778 216.368 3.96111C214.128 6.36111 213.008 9.77445 213.008 14.2011C213.008 17.4544 213.728 20.3878 215.168 23.0011C216.608 25.5611 219.142 28.4411 222.768 31.6411C225.648 34.1478 227.622 36.3078 228.688 38.1211C229.755 39.8811 230.288 41.9344 230.288 44.2811C230.288 46.2544 229.888 47.6945 229.088 48.6011C228.342 49.4544 227.222 49.8811 225.728 49.8811C222.688 49.8811 221.168 48.0678 221.168 44.4411V40.6011H212.848V43.8011C212.848 48.3344 213.942 51.8278 216.128 54.2811ZM3.39388 150.281C5.58055 152.681 8.80722 153.881 13.0739 153.881C17.3939 153.881 20.6739 152.654 22.9139 150.201C25.2072 147.748 26.3539 144.228 26.3539 139.641C26.3539 136.121 25.6605 133.054 24.2739 130.441C22.8872 127.828 20.3539 124.921 16.6739 121.721C13.7939 119.214 11.7939 117.081 10.6739 115.321C9.60722 113.561 9.07388 111.668 9.07388 109.641C9.07388 106.068 10.5405 104.281 13.4739 104.281C14.9139 104.281 16.0072 104.734 16.7539 105.641C17.5005 106.494 17.8739 107.881 17.8739 109.801V112.681H26.1939V110.361C26.1939 105.828 25.1005 102.361 22.9139 99.9611C20.7806 97.5078 17.6072 96.2811 13.3939 96.2811C9.12722 96.2811 5.87388 97.5078 3.63388 99.9611C1.39388 102.361 0.273882 105.774 0.273882 110.201C0.273882 113.454 0.993882 116.388 2.43388 119.001C3.87388 121.561 6.40722 124.441 10.0339 127.641C12.9139 130.148 14.8872 132.308 15.9539 134.121C17.0205 135.881 17.5539 137.934 17.5539 140.281C17.5539 142.254 17.1539 143.694 16.3539 144.601C15.6072 145.454 14.4872 145.881 12.9939 145.881C9.95388 145.881 8.43388 144.068 8.43388 140.441V136.601H0.113882V139.801C0.113882 144.334 1.20722 147.828 3.39388 150.281ZM28.3708 97.0811L39.0108 129.241V153.081H47.8108V129.241L58.4508 97.0811H49.8908L43.8908 117.641H43.7308L37.7308 97.0811H28.3708ZM73.4551 97.0811H62.4151V153.081H70.2551V112.201H70.4151L80.9751 153.081H90.0151V97.0811H82.1751V130.601H82.0151L73.4551 97.0811ZM99.2758 150.281C101.516 152.681 104.742 153.881 108.956 153.881C113.169 153.881 116.369 152.681 118.556 150.281C120.796 147.881 121.916 144.494 121.916 140.121V132.201H113.596V140.761C113.596 144.174 112.129 145.881 109.196 145.881C106.262 145.881 104.796 144.174 104.796 140.761V109.481C104.796 106.014 106.262 104.281 109.196 104.281C112.129 104.281 113.596 106.014 113.596 109.481V114H113.5H110L117.5 122.5L125.5 114H122H121.916V110.041C121.916 105.668 120.796 102.281 118.556 99.8811C116.369 97.4811 113.169 96.2811 108.956 96.2811C104.742 96.2811 101.516 97.4811 99.2758 99.8811C97.0891 102.281 95.9958 105.668 95.9958 110.041V140.121C95.9958 144.494 97.0891 147.881 99.2758 150.281Z" fill="white"/>
</svg>
