<svg width="240" height="154" viewBox="0 0 240 154" fill="none" xmlns="http://www.w3.org/2000/svg">
<path d="M13.0739 57.8811C8.80722 57.8811 5.58055 56.6811 3.39388 54.2811C1.20722 51.8278 0.113882 48.3344 0.113882 43.8011V40.6011H8.43388V44.4411C8.43388 48.0678 9.95388 49.8811 12.9939 49.8811C14.4872 49.8811 15.6072 49.4544 16.3539 48.6011C17.1539 47.6944 17.5539 46.2544 17.5539 44.2811C17.5539 41.9344 17.0205 39.8811 15.9539 38.1211C14.8872 36.3078 12.9139 34.1478 10.0339 31.6411C6.40722 28.4411 3.87388 25.5611 2.43388 23.0011C0.993882 20.3878 0.273882 17.4544 0.273882 14.2011C0.273882 9.77445 1.39388 6.36111 3.63388 3.96111C5.87388 1.50778 9.12722 0.281113 13.3939 0.281113C17.6072 0.281113 20.7805 1.50778 22.9139 3.96111C25.1005 6.36111 26.1939 9.82778 26.1939 14.3611V16.6811H17.8739V13.8011C17.8739 11.8811 17.5005 10.4944 16.7539 9.64111C16.0072 8.73445 14.9139 8.28111 13.4739 8.28111C10.5405 8.28111 9.07388 10.0678 9.07388 13.6411C9.07388 15.6678 9.60722 17.5611 10.6739 19.3211C11.7939 21.0811 13.7939 23.2144 16.6739 25.7211C20.3539 28.9211 22.8872 31.8278 24.2739 34.4411C25.6605 37.0544 26.3539 40.1211 26.3539 43.6411C26.3539 48.2278 25.2072 51.7478 22.9139 54.2011C20.6739 56.6544 17.3939 57.8811 13.0739 57.8811ZM39.0108 33.2411L28.3708 1.08111H37.7308L43.7308 21.6411H43.8908L49.8908 1.08111H58.4508L47.8108 33.2411V57.0811H39.0108V33.2411ZM62.4151 1.08111H71.2151V49.0811H85.6951V57.0811H62.4151V1.08111ZM89.9151 1.08111H98.7151V49.0811H113.195V57.0811H89.9151V1.08111ZM124.528 1.08111H136.448L145.568 57.0811H136.768L135.168 45.9611V46.1211H125.168L123.568 57.0811H115.408L124.528 1.08111ZM134.128 38.5211L130.208 10.8411H130.048L126.208 38.5211H134.128ZM149.837 1.08111H163.117C167.65 1.08111 170.957 2.14778 173.037 4.28111C175.117 6.36111 176.157 9.58778 176.157 13.9611V16.2011C176.157 19.0811 175.677 21.4278 174.717 23.2411C173.81 25.0544 172.397 26.3611 170.477 27.1611V27.3211C174.85 28.8144 177.037 32.7078 177.037 39.0011V43.8011C177.037 48.1211 175.89 51.4278 173.597 53.7211C171.357 55.9611 168.05 57.0811 163.677 57.0811H149.837V1.08111ZM162.077 23.8811C163.837 23.8811 165.144 23.4278 165.997 22.5211C166.904 21.6144 167.357 20.0944 167.357 17.9611V14.8411C167.357 12.8144 166.984 11.3478 166.237 10.4411C165.544 9.53445 164.424 9.08111 162.877 9.08111H158.637V23.8811H162.077ZM163.677 49.0811C165.224 49.0811 166.37 48.6811 167.117 47.8811C167.864 47.0278 168.237 45.5878 168.237 43.5611V38.6811C168.237 36.1211 167.784 34.3611 166.877 33.4011C166.024 32.3878 164.584 31.8811 162.557 31.8811H158.637V49.0811H163.677ZM194.981 57.8811C190.714 57.8811 187.461 56.6811 185.221 54.2811C182.981 51.8278 181.861 48.3344 181.861 43.8011V1.08111H190.661V44.4411C190.661 46.3611 191.034 47.7478 191.781 48.6011C192.581 49.4544 193.701 49.8811 195.141 49.8811C196.581 49.8811 197.674 49.4544 198.421 48.6011C199.221 47.7478 199.621 46.3611 199.621 44.4411V1.08111H208.101V43.8011C208.101 48.3344 206.981 51.8278 204.741 54.2811C202.501 56.6811 199.247 57.8811 194.981 57.8811ZM225.808 57.8811C221.542 57.8811 218.315 56.6811 216.128 54.2811C213.942 51.8278 212.848 48.3344 212.848 43.8011V40.6011H221.168V44.4411C221.168 48.0678 222.688 49.8811 225.728 49.8811C227.222 49.8811 228.342 49.4544 229.088 48.6011C229.888 47.6944 230.288 46.2544 230.288 44.2811C230.288 41.9344 229.755 39.8811 228.688 38.1211C227.622 36.3078 225.648 34.1478 222.768 31.6411C219.142 28.4411 216.608 25.5611 215.168 23.0011C213.728 20.3878 213.008 17.4544 213.008 14.2011C213.008 9.77445 214.128 6.36111 216.368 3.96111C218.608 1.50778 221.862 0.281113 226.128 0.281113C230.342 0.281113 233.515 1.50778 235.648 3.96111C237.835 6.36111 238.928 9.82778 238.928 14.3611V16.6811H230.608V13.8011C230.608 11.8811 230.235 10.4944 229.488 9.64111C228.742 8.73445 227.648 8.28111 226.208 8.28111C223.275 8.28111 221.808 10.0678 221.808 13.6411C221.808 15.6678 222.342 17.5611 223.408 19.3211C224.528 21.0811 226.528 23.2144 229.408 25.7211C233.088 28.9211 235.622 31.8278 237.008 34.4411C238.395 37.0544 239.088 40.1211 239.088 43.6411C239.088 48.2278 237.942 51.7478 235.648 54.2011C233.408 56.6544 230.128 57.8811 225.808 57.8811ZM13.0739 153.881C8.80722 153.881 5.58055 152.681 3.39388 150.281C1.20722 147.828 0.113882 144.334 0.113882 139.801V136.601H8.43388V140.441C8.43388 144.068 9.95388 145.881 12.9939 145.881C14.4872 145.881 15.6072 145.454 16.3539 144.601C17.1539 143.694 17.5539 142.254 17.5539 140.281C17.5539 137.934 17.0205 135.881 15.9539 134.121C14.8872 132.308 12.9139 130.148 10.0339 127.641C6.40722 124.441 3.87388 121.561 2.43388 119.001C0.993882 116.388 0.273882 113.454 0.273882 110.201C0.273882 105.774 1.39388 102.361 3.63388 99.9611C5.87388 97.5078 9.12722 96.2811 13.3939 96.2811C17.6072 96.2811 20.7805 97.5078 22.9139 99.9611C25.1005 102.361 26.1939 105.828 26.1939 110.361V112.681H17.8739V109.801C17.8739 107.881 17.5005 106.494 16.7539 105.641C16.0072 104.734 14.9139 104.281 13.4739 104.281C10.5405 104.281 9.07388 106.068 9.07388 109.641C9.07388 111.668 9.60722 113.561 10.6739 115.321C11.7939 117.081 13.7939 119.214 16.6739 121.721C20.3539 124.921 22.8872 127.828 24.2739 130.441C25.6605 133.054 26.3539 136.121 26.3539 139.641C26.3539 144.228 25.2072 147.748 22.9139 150.201C20.6739 152.654 17.3939 153.881 13.0739 153.881ZM39.0108 129.241L28.3708 97.0811H37.7308L43.7308 117.641H43.8908L49.8908 97.0811H58.4508L47.8108 129.241V153.081H39.0108V129.241ZM62.4151 97.0811H73.4551L82.0151 130.601H82.1751V97.0811H90.0151V153.081H80.9751L70.4151 112.201H70.2551V153.081H62.4151V97.0811ZM108.956 153.881C104.742 153.881 101.516 152.681 99.2758 150.281C97.0891 147.881 95.9958 144.494 95.9958 140.121V110.041C95.9958 105.668 97.0891 102.281 99.2758 99.8811C101.516 97.4811 104.742 96.2811 108.956 96.2811C113.169 96.2811 116.369 97.4811 118.556 99.8811C120.796 102.281 121.916 105.668 121.916 110.041V115.961H113.596V109.481C113.596 106.014 112.129 104.281 109.196 104.281C106.262 104.281 104.796 106.014 104.796 109.481V140.761C104.796 144.174 106.262 145.881 109.196 145.881C112.129 145.881 113.596 144.174 113.596 140.761V132.201H121.916V140.121C121.916 144.494 120.796 147.881 118.556 150.281C116.369 152.681 113.169 153.881 108.956 153.881Z" fill="white"/>
</svg>
