<svg width="20" height="21" viewBox="0 0 20 21" fill="none" xmlns="http://www.w3.org/2000/svg">
<path fill-rule="evenodd" clip-rule="evenodd" d="M2 5.00001C2 4.02893 2.00213 3.40122 2.06431 2.93871C2.12263 2.50497 2.21677 2.36902 2.2929 2.2929C2.36902 2.21677 2.50497 2.12263 2.93871 2.06431C3.40122 2.00213 4.02893 2.00001 5.00001 2.00001L12.5351 2.00001C12.1948 2.58835 12 3.27143 12 4V7L12 17.6126L10.3162 17.0513L10 16.9459L9.68378 17.0513L7.00001 17.9459L4.31623 17.0513L4.00001 16.9459L3.68378 17.0513L2.00001 17.6126L2 5.00001ZM14 4C14 2.89544 14.8954 2.00001 16 2.00001C17.1046 2.00001 18 2.89544 18 4.00001L18 6H14V4ZM18.1429 8H14L14 19V20.3874L12.6838 19.9487L10 19.0541L7.31623 19.9487L7.00001 20.0541L6.68378 19.9487L4.00001 19.0541L1.31623 19.9487L5.42506e-06 20.3874L5.36442e-06 19L4.81206e-06 5.00001L2.3654e-06 4.93417C-4.73836e-05 4.04769 -9.03324e-05 3.28388 0.0821453 2.67222C0.170277 2.0167 0.369022 1.38835 0.878684 0.878686C1.38835 0.369023 2.0167 0.170279 2.67221 0.0821463C3.28388 -8.903e-05 4.0477 -4.71017e-05 4.9342 2.45064e-06L5.00001 6.26246e-06L16 7.68898e-06C18.2091 5.68507e-06 20 1.79087 20 4.00001L20 6.14286L20 6.17055C20.0001 6.31257 20.0002 6.48206 19.9858 6.63052C19.9689 6.80416 19.9253 7.0511 19.7701 7.29805C19.6502 7.48885 19.4889 7.6502 19.2981 7.77009C19.0511 7.92525 18.8042 7.96891 18.6305 7.98575C18.4821 8.00015 18.3126 8.00007 18.1705 8.00001L18.1429 8ZM5.00001 4C4.44772 4 4.00001 4.44771 4.00001 5C4.00001 5.55228 4.44772 6 5.00001 6L9.00001 6C9.55229 6 10 5.55228 10 5C10 4.44771 9.55229 4 9.00001 4L5.00001 4ZM7.00001 9C7.00001 9.55228 6.55229 10 6.00001 10H5.00001C4.44772 10 4.00001 9.55228 4.00001 9C4.00001 8.44771 4.44772 8 5.00001 8H6.00001C6.55229 8 7.00001 8.44771 7.00001 9ZM5.00001 12C4.44772 12 4.00001 12.4477 4.00001 13C4.00001 13.5523 4.44772 14 5.00001 14L8.00001 14C8.55229 14 9.00001 13.5523 9.00001 13C9.00001 12.4477 8.55229 12 8.00001 12L5.00001 12Z" fill="#001036"/>
</svg>
