<svg width="20" height="20" viewBox="0 0 20 20" fill="none" xmlns="http://www.w3.org/2000/svg">
<path fill-rule="evenodd" clip-rule="evenodd" d="M6.00001 0C6.55229 0 7.00001 0.447715 7.00001 1L7.00001 3H13V1C13 0.447715 13.4477 0 14 0C14.5523 0 15 0.447715 15 1V3L15.0658 3C15.9523 2.99995 16.7161 2.99991 17.3278 3.08214C17.9833 3.17027 18.6117 3.36902 19.1213 3.87868C19.631 4.38834 19.8297 5.01669 19.9179 5.67221C20.0001 6.28387 20.0001 7.0477 20 7.93419L20 8V15L20 15.0658C20.0001 15.9523 20.0001 16.7161 19.9179 17.3278C19.8297 17.9833 19.631 18.6117 19.1213 19.1213C18.6117 19.631 17.9833 19.8297 17.3278 19.9179C16.7161 20.0001 15.9523 20.0001 15.0658 20L15 20H5.00001L4.9342 20C4.0477 20.0001 3.28388 20.0001 2.67221 19.9179C2.0167 19.8297 1.38835 19.631 0.878686 19.1213C0.369024 18.6117 0.170279 17.9833 0.0821467 17.3278C-8.88109e-05 16.7161 -4.60148e-05 15.9523 3.8147e-06 15.0658L6.19888e-06 15V8L3.8147e-06 7.93417C-4.60148e-05 7.04768 -8.88109e-05 6.28387 0.0821467 5.67221C0.170279 5.01669 0.369024 4.38834 0.878686 3.87868C1.38835 3.36902 2.0167 3.17027 2.67221 3.08214C3.28388 2.99991 4.04769 2.99995 4.93418 3L5.00001 3V1C5.00001 0.447715 5.44772 0 6.00001 0ZM13 5C13 5.55228 13.4477 6 14 6C14.5523 6 15 5.55228 15 5C15.9711 5 16.5988 5.00212 17.0613 5.06431C17.495 5.12262 17.631 5.21677 17.7071 5.29289C17.7832 5.36902 17.8774 5.50496 17.9357 5.9387C17.9979 6.40121 18 7.02892 18 8H2.00001C2.00001 7.02892 2.00213 6.40121 2.06431 5.9387C2.12263 5.50496 2.21678 5.36902 2.2929 5.29289C2.36902 5.21677 2.50497 5.12262 2.93871 5.06431C3.40122 5.00212 4.02893 5 5.00001 5C5.00001 5.55228 5.44772 6 6.00001 6C6.55229 6 7.00001 5.55228 7.00001 5H13ZM2.00001 15V10H18V15C18 15.9711 17.9979 16.5988 17.9357 17.0613C17.8774 17.495 17.7832 17.631 17.7071 17.7071C17.631 17.7832 17.495 17.8774 17.0613 17.9357C16.5988 17.9979 15.9711 18 15 18H5.00001C4.02893 18 3.40122 17.9979 2.93871 17.9357C2.50497 17.8774 2.36902 17.7832 2.2929 17.7071C2.21678 17.631 2.12263 17.495 2.06431 17.0613C2.00213 16.5988 2.00001 15.9711 2.00001 15ZM7.00001 13C6.44772 13 6.00001 13.4477 6.00001 14C6.00001 14.5523 6.44772 15 7.00001 15H13C13.5523 15 14 14.5523 14 14C14 13.4477 13.5523 13 13 13H7.00001Z" fill="#33363F"/>
</svg>
