<svg width="18" height="16" viewBox="0 0 18 16" fill="none" xmlns="http://www.w3.org/2000/svg">
<path fill-rule="evenodd" clip-rule="evenodd" d="M8 3C8 2.44772 7.55228 2 7 2C6.44772 2 6 2.44772 6 3C6 3.55228 6.44772 4 7 4C7.55228 4 8 3.55228 8 3ZM17 4L9.82929 4C9.41746 5.16519 8.30622 6 7 6C5.69378 6 4.58254 5.16519 4.17071 4L1 4C0.447715 4 0 3.55228 0 3C0 2.44772 0.447715 2 1 2L4.17071 2C4.58254 0.834807 5.69378 0 7 0C8.30622 0 9.41746 0.834808 9.82929 2L17 2C17.5523 2 18 2.44772 18 3C18 3.55228 17.5523 4 17 4ZM14.8293 12C14.4175 10.8348 13.3062 10 12 10C10.6887 10 9.57385 10.8414 9.1659 12.0137C9.11194 12.0047 9.05652 12 9 12L1 12C0.447715 12 0 12.4477 0 13C0 13.5523 0.447715 14 1 14L9 14C9.05652 14 9.11194 13.9953 9.1659 13.9863C9.57385 15.1586 10.6887 16 12 16C13.3062 16 14.4175 15.1652 14.8293 14H17C17.5523 14 18 13.5523 18 13C18 12.4477 17.5523 12 17 12H14.8293ZM13 13C13 12.4477 12.5523 12 12 12C11.4477 12 11 12.4477 11 13C11 13.5523 11.4477 14 12 14C12.5523 14 13 13.5523 13 13Z" fill="#33363F"/>
</svg>
